<svg width="20" height="24" viewBox="0 0 20 24" fill="none" xmlns="http://www.w3.org/2000/svg">
<mask id="path-1-inside-1_102_23" fill="white">
<path d="M19.005 13.8846L2.56116 0.791291C2.36796 0.626915 2.12731 0.525784 1.87275 0.501992C1.61819 0.478201 1.36241 0.532935 1.14106 0.658566C0.919713 0.784197 0.743824 0.974464 0.637913 1.20285C0.532002 1.43123 0.501347 1.68635 0.550219 1.93264L3.92909 22.4286C3.9634 22.6823 4.0791 22.9188 4.25945 23.1036C4.43979 23.2885 4.67541 23.4123 4.93221 23.4571C5.18901 23.5018 5.45366 23.4652 5.68786 23.3526C5.92206 23.24 6.11365 23.0571 6.23491 22.8305L9.87999 16.6576C9.98962 16.4745 10.1466 16.3231 10.335 16.2187C10.5234 16.1142 10.7366 16.0605 10.953 16.0628H18.2268C18.4904 16.0741 18.7506 16.0019 18.9691 15.8568C19.1876 15.7117 19.3526 15.5015 19.4399 15.2572C19.5272 15.0129 19.532 14.7475 19.4537 14.5003C19.3754 14.2532 19.218 14.0373 19.005 13.8846Z"/>
<path d="M5.17005 24C5.05736 23.9991 4.94497 23.9883 4.83421 23.9678C4.47211 23.9049 4.13916 23.7323 3.88209 23.4743C3.62501 23.2163 3.45669 22.8858 3.40075 22.5291L0.0218874 2.01703C-0.0343667 1.66853 0.018419 1.31149 0.173275 0.99304C0.32813 0.674593 0.577773 0.40972 0.889239 0.233396C1.20071 0.0570724 1.55935 -0.0224099 1.91781 0.00544435C2.27627 0.0332986 2.61769 0.167179 2.897 0.389409L19.3449 13.4747C19.6292 13.7024 19.8349 14.0107 19.9339 14.3574C20.0329 14.7041 20.0204 15.0724 19.8981 15.4119C19.7757 15.7514 19.5495 16.0455 19.2504 16.2541C18.9513 16.4627 18.5938 16.5755 18.2268 16.5772L10.9571 16.6054C10.8329 16.6054 10.7109 16.6374 10.6031 16.698C10.4954 16.7586 10.4056 16.8458 10.3428 16.951L6.69771 23.1279C6.54462 23.393 6.3225 23.6135 6.05409 23.7667C5.78567 23.9199 5.48059 24.0004 5.17005 24ZM1.78709 1.03644C1.65921 1.03772 1.53378 1.07091 1.42258 1.13289C1.29678 1.20269 1.1959 1.30877 1.13363 1.43673C1.07135 1.5647 1.0507 1.70836 1.07446 1.84824L4.45742 22.3643C4.48242 22.5051 4.55077 22.6349 4.65325 22.7364C4.75573 22.8379 4.88744 22.9062 5.03064 22.932C5.17384 22.9578 5.32167 22.94 5.45423 22.8809C5.58679 22.8218 5.69773 22.7243 5.7721 22.6014L9.41718 16.4245C9.57379 16.1615 9.79726 15.9429 10.0657 15.7901C10.3342 15.6372 10.6385 15.5553 10.9489 15.5524L18.2227 15.5283C18.3687 15.5267 18.5106 15.4811 18.6293 15.3978C18.748 15.3145 18.8377 15.1974 18.8864 15.0624C18.9351 14.9274 18.9404 14.781 18.9015 14.6429C18.8627 14.5049 18.7815 14.3819 18.6691 14.2905L2.22532 1.19317C2.10229 1.09246 1.94731 1.03702 1.78709 1.03644Z"/>
</mask>
<path d="M19.005 13.8846L2.56116 0.791291C2.36796 0.626915 2.12731 0.525784 1.87275 0.501992C1.61819 0.478201 1.36241 0.532935 1.14106 0.658566C0.919713 0.784197 0.743824 0.974464 0.637913 1.20285C0.532002 1.43123 0.501347 1.68635 0.550219 1.93264L3.92909 22.4286C3.9634 22.6823 4.0791 22.9188 4.25945 23.1036C4.43979 23.2885 4.67541 23.4123 4.93221 23.4571C5.18901 23.5018 5.45366 23.4652 5.68786 23.3526C5.92206 23.24 6.11365 23.0571 6.23491 22.8305L9.87999 16.6576C9.98962 16.4745 10.1466 16.3231 10.335 16.2187C10.5234 16.1142 10.7366 16.0605 10.953 16.0628H18.2268C18.4904 16.0741 18.7506 16.0019 18.9691 15.8568C19.1876 15.7117 19.3526 15.5015 19.4399 15.2572C19.5272 15.0129 19.532 14.7475 19.4537 14.5003C19.3754 14.2532 19.218 14.0373 19.005 13.8846Z" fill="white"/>
<path d="M5.17005 24C5.05736 23.9991 4.94497 23.9883 4.83421 23.9678C4.47211 23.9049 4.13916 23.7323 3.88209 23.4743C3.62501 23.2163 3.45669 22.8858 3.40075 22.5291L0.0218874 2.01703C-0.0343667 1.66853 0.018419 1.31149 0.173275 0.99304C0.32813 0.674593 0.577773 0.40972 0.889239 0.233396C1.20071 0.0570724 1.55935 -0.0224099 1.91781 0.00544435C2.27627 0.0332986 2.61769 0.167179 2.897 0.389409L19.3449 13.4747C19.6292 13.7024 19.8349 14.0107 19.9339 14.3574C20.0329 14.7041 20.0204 15.0724 19.8981 15.4119C19.7757 15.7514 19.5495 16.0455 19.2504 16.2541C18.9513 16.4627 18.5938 16.5755 18.2268 16.5772L10.9571 16.6054C10.8329 16.6054 10.7109 16.6374 10.6031 16.698C10.4954 16.7586 10.4056 16.8458 10.3428 16.951L6.69771 23.1279C6.54462 23.393 6.3225 23.6135 6.05409 23.7667C5.78567 23.9199 5.48059 24.0004 5.17005 24ZM1.78709 1.03644C1.65921 1.03772 1.53378 1.07091 1.42258 1.13289C1.29678 1.20269 1.1959 1.30877 1.13363 1.43673C1.07135 1.5647 1.0507 1.70836 1.07446 1.84824L4.45742 22.3643C4.48242 22.5051 4.55077 22.6349 4.65325 22.7364C4.75573 22.8379 4.88744 22.9062 5.03064 22.932C5.17384 22.9578 5.32167 22.94 5.45423 22.8809C5.58679 22.8218 5.69773 22.7243 5.7721 22.6014L9.41718 16.4245C9.57379 16.1615 9.79726 15.9429 10.0657 15.7901C10.3342 15.6372 10.6385 15.5553 10.9489 15.5524L18.2227 15.5283C18.3687 15.5267 18.5106 15.4811 18.6293 15.3978C18.748 15.3145 18.8377 15.1974 18.8864 15.0624C18.9351 14.9274 18.9404 14.781 18.9015 14.6429C18.8627 14.5049 18.7815 14.3819 18.6691 14.2905L2.22532 1.19317C2.10229 1.09246 1.94731 1.03702 1.78709 1.03644Z" fill="#1D1D1B"/>
<path d="M19.005 13.8846L18.3821 14.6669L18.4019 14.6827L18.4226 14.6975L19.005 13.8846ZM2.56116 0.791291L1.91315 1.55293L1.92553 1.56346L1.93825 1.57359L2.56116 0.791291ZM0.550219 1.93264L1.5369 1.76998L1.53426 1.75394L1.53109 1.738L0.550219 1.93264ZM3.92909 22.4286L4.92006 22.2946L4.91812 22.2803L4.91577 22.266L3.92909 22.4286ZM6.23491 22.8305L5.37382 22.3221L5.36313 22.3402L5.35321 22.3587L6.23491 22.8305ZM9.87999 16.6576L9.02203 16.1439L9.0189 16.1491L9.87999 16.6576ZM10.953 16.0628L10.9421 17.0628H10.953V16.0628ZM18.2268 16.0628L18.2696 15.0637L18.2482 15.0628H18.2268V16.0628ZM5.17005 24L5.16167 25L5.16862 25L5.17005 24ZM4.83421 23.9678L5.01576 22.9844L5.00545 22.9826L4.83421 23.9678ZM3.40075 22.5291L4.38871 22.3742L4.38746 22.3666L3.40075 22.5291ZM0.0218874 2.01703L-0.965339 2.17639L-0.964815 2.17957L0.0218874 2.01703ZM2.897 0.389409L2.27437 1.17193L2.27442 1.17197L2.897 0.389409ZM19.3449 13.4747L19.97 12.6942L19.9675 12.6921L19.3449 13.4747ZM18.2268 16.5772L18.2307 17.5772L18.2314 17.5772L18.2268 16.5772ZM10.9571 16.6054L10.9577 17.6054L10.961 17.6054L10.9571 16.6054ZM10.3428 16.951L9.48432 16.4381L9.48156 16.4428L10.3428 16.951ZM6.69771 23.1279L5.83644 22.6197L5.83172 22.6278L6.69771 23.1279ZM1.78709 1.03644L1.79074 0.0363525L1.77707 0.0364896L1.78709 1.03644ZM1.42258 1.13289L1.90775 2.00731L1.90944 2.00637L1.42258 1.13289ZM1.07446 1.84824L2.06114 1.68554L2.06033 1.68078L1.07446 1.84824ZM4.45742 22.3643L3.47067 22.527L3.47284 22.5393L4.45742 22.3643ZM5.7721 22.6014L6.62755 23.1195L6.63333 23.1097L5.7721 22.6014ZM9.41718 16.4245L8.55799 15.9129L8.55596 15.9163L9.41718 16.4245ZM10.9489 15.5524L10.9456 14.5524L10.9396 14.5525L10.9489 15.5524ZM18.2227 15.5283L18.226 16.5283L18.2339 16.5283L18.2227 15.5283ZM18.6691 14.2905L19.2998 13.5144L19.2922 13.5083L18.6691 14.2905ZM2.22532 1.19317L1.59179 1.96701L1.6023 1.97538L2.22532 1.19317ZM19.6279 13.1023L3.18406 0.00899186L1.93825 1.57359L18.3821 14.6669L19.6279 13.1023ZM3.20916 0.0296558C2.85811 -0.269027 2.42327 -0.450913 1.96581 -0.493669L1.77969 1.49765C1.83135 1.50248 1.87781 1.52286 1.91315 1.55293L3.20916 0.0296558ZM1.96581 -0.493669C1.5084 -0.536419 1.04772 -0.438294 0.647456 -0.211119L1.63467 1.52825C1.67711 1.50416 1.72799 1.49282 1.77969 1.49765L1.96581 -0.493669ZM0.647456 -0.211119C0.24696 0.0161899 -0.0746431 0.362426 -0.269283 0.782139L1.54511 1.62355C1.56229 1.5865 1.59247 1.5522 1.63467 1.52825L0.647456 -0.211119ZM-0.269283 0.782139C-0.464047 1.20212 -0.520867 1.67266 -0.430656 2.12728L1.53109 1.738C1.52356 1.70003 1.52805 1.66034 1.54511 1.62355L-0.269283 0.782139ZM-0.436463 2.0953L2.9424 22.5913L4.91577 22.266L1.5369 1.76998L-0.436463 2.0953ZM2.93811 22.5627C3.00147 23.0311 3.21479 23.4648 3.54358 23.8019L4.97531 22.4054C4.94342 22.3727 4.92533 22.3336 4.92006 22.2946L2.93811 22.5627ZM3.54358 23.8019C3.87211 24.1387 4.29874 24.3617 4.76051 24.4422L5.10391 22.4719C5.05208 22.4629 5.00746 22.4384 4.97531 22.4054L3.54358 23.8019ZM4.76051 24.4422C5.22217 24.5227 5.69847 24.4572 6.1213 24.2538L5.25442 22.4514C5.20885 22.4733 5.15585 22.481 5.10391 22.4719L4.76051 24.4422ZM6.1213 24.2538C6.54436 24.0503 6.89405 23.7182 7.1166 23.3023L5.35321 22.3587C5.33325 22.396 5.29975 22.4296 5.25442 22.4514L6.1213 24.2538ZM7.09599 23.339L10.7411 17.1661L9.0189 16.1491L5.37382 22.3221L7.09599 23.339ZM10.7379 17.1714C10.7562 17.1408 10.7838 17.1132 10.8198 17.0933L9.85021 15.344C9.50935 15.533 9.22303 15.8082 9.02204 16.1439L10.7379 17.1714ZM10.8198 17.0933C10.8559 17.0733 10.8982 17.0623 10.9421 17.0628L10.964 15.0629C10.5751 15.0586 10.191 15.1552 9.85021 15.344L10.8198 17.0933ZM10.953 17.0628H18.2268V15.0628H10.953V17.0628ZM18.184 17.0619C18.6575 17.0822 19.1266 16.9526 19.5223 16.6898L18.4159 15.0238C18.3746 15.0511 18.3233 15.066 18.2696 15.0637L18.184 17.0619ZM19.5223 16.6898C19.9183 16.4268 20.2209 16.0434 20.3816 15.5936L18.4982 14.9207C18.4844 14.9595 18.4568 14.9966 18.4159 15.0238L19.5223 16.6898ZM20.3816 15.5936C20.5424 15.1436 20.5514 14.6539 20.407 14.1983L18.5004 14.8024C18.5127 14.8411 18.512 14.8822 18.4982 14.9207L20.3816 15.5936ZM20.407 14.1983C20.2627 13.7428 19.9739 13.3487 19.5874 13.0717L18.4226 14.6975C18.4621 14.7259 18.4881 14.7635 18.5004 14.8024L20.407 14.1983ZM5.17844 23C5.1238 22.9996 5.06935 22.9944 5.01575 22.9845L4.65267 24.9512C4.82059 24.9822 4.99091 24.9985 5.16167 25L5.17844 23ZM5.00545 22.9826C4.84499 22.9547 4.70028 22.8787 4.59049 22.7685L3.17368 24.1801C3.57805 24.586 4.09922 24.8551 4.66298 24.9531L5.00545 22.9826ZM4.59049 22.7685C4.48095 22.6586 4.4116 22.5203 4.38868 22.3742L2.41283 22.6841C2.50179 23.2512 2.76906 23.774 3.17368 24.1801L4.59049 22.7685ZM4.38746 22.3666L1.00859 1.8545L-0.964815 2.17957L2.41405 22.6916L4.38746 22.3666ZM1.00911 1.85768C0.985763 1.71305 1.00744 1.56432 1.07258 1.43036L-0.726032 0.555723C-0.970602 1.05866 -1.0545 1.62402 -0.965334 2.17639L1.00911 1.85768ZM1.07258 1.43036C1.13784 1.29615 1.24466 1.18131 1.38188 1.10363L0.396594 -0.636834C-0.0891152 -0.36187 -0.481582 0.0530317 -0.726032 0.555723L1.07258 1.43036ZM1.38188 1.10363C1.51932 1.02582 1.67933 0.989928 1.84034 1.00244L1.99528 -0.99155C1.43937 -1.03475 0.882092 -0.911679 0.396594 -0.636834L1.38188 1.10363ZM1.84034 1.00244C2.00131 1.01495 2.15252 1.07498 2.27437 1.17193L3.51962 -0.393114C3.08286 -0.740621 2.55124 -0.94835 1.99528 -0.99155L1.84034 1.00244ZM2.27442 1.17197L18.7223 14.2573L19.9675 12.6921L3.51957 -0.393152L2.27442 1.17197ZM18.7198 14.2552C18.8439 14.3547 18.9309 14.4869 18.9724 14.632L20.8955 14.0828C20.7389 13.5345 20.4145 13.0501 19.97 12.6942L18.7198 14.2552ZM18.9724 14.632C19.0137 14.7769 19.0086 14.9305 18.9573 15.0729L20.8388 15.7509C21.0322 15.2143 21.0521 14.6314 20.8955 14.0828L18.9724 14.632ZM18.9573 15.0729C18.9059 15.2154 18.8097 15.3423 18.6784 15.4338L19.8224 17.0744C20.2893 16.7488 20.6455 16.2873 20.8388 15.7509L18.9573 15.0729ZM18.6784 15.4338C18.5469 15.5255 18.3876 15.5765 18.2222 15.5772L18.2314 17.5772C18.8 17.5746 19.3556 17.3998 19.8224 17.0744L18.6784 15.4338ZM18.2229 15.5772L10.9533 15.6054L10.961 17.6054L18.2307 17.5772L18.2229 15.5772ZM10.9565 15.6054C10.6616 15.6055 10.3708 15.6813 10.1128 15.8265L11.0934 17.5695C11.051 17.5934 11.0042 17.6053 10.9577 17.6054L10.9565 15.6054ZM10.1128 15.8265C9.85468 15.9717 9.63741 16.1819 9.48433 16.4381L11.2012 17.4639C11.1738 17.5098 11.136 17.5456 11.0934 17.5695L10.1128 15.8265ZM9.48156 16.4428L5.83648 22.6197L7.55894 23.6361L11.204 17.4592L9.48156 16.4428ZM5.83172 22.6278C5.76812 22.738 5.67443 22.832 5.55832 22.8983L6.54986 24.6352C6.97058 24.395 7.32112 24.0481 7.56369 23.628L5.83172 22.6278ZM5.55832 22.8983C5.44208 22.9646 5.30852 23.0002 5.17148 23L5.16862 25C5.65266 25.0007 6.12926 24.8753 6.54986 24.6352L5.55832 22.8983ZM1.77707 0.0364896C1.48298 0.0394373 1.1935 0.11573 0.935719 0.259412L1.90944 2.00637C1.87405 2.0261 1.83545 2.036 1.79711 2.03639L1.77707 0.0364896ZM0.937413 0.25847C0.634123 0.426749 0.387641 0.684366 0.234453 0.999147L2.03281 1.87432C2.00417 1.93317 1.95944 1.97863 1.90775 2.00731L0.937413 0.25847ZM0.234453 0.999147C0.0811385 1.31419 0.0297481 1.66936 0.0885766 2.0157L2.06033 1.68078C2.07164 1.74737 2.06157 1.81521 2.03281 1.87432L0.234453 0.999147ZM0.0877794 2.01094L3.47074 22.527L5.44409 22.2016L2.06113 1.68555L0.0877794 2.01094ZM3.47284 22.5393C3.5343 22.8852 3.70184 23.2016 3.9496 23.447L5.3569 22.0259C5.3997 22.0683 5.43055 22.125 5.442 22.1894L3.47284 22.5393ZM3.9496 23.447C4.19713 23.6921 4.51282 23.8547 4.85315 23.9161L5.20813 21.9479C5.26205 21.9576 5.31434 21.9837 5.3569 22.0259L3.9496 23.447ZM4.85315 23.9161C5.19338 23.9775 5.54498 23.9353 5.86141 23.7942L5.04706 21.9675C5.09837 21.9447 5.1543 21.9382 5.20813 21.9479L4.85315 23.9161ZM5.86141 23.7942C6.17804 23.6531 6.4463 23.4187 6.6275 23.1194L4.91671 22.0835C4.94916 22.0299 4.99555 21.9905 5.04706 21.9675L5.86141 23.7942ZM6.63333 23.1097L10.2784 16.9327L8.55596 15.9163L4.91088 22.0932L6.63333 23.1097ZM10.2764 16.9362C10.3436 16.8233 10.4409 16.7272 10.5605 16.6591L9.57098 14.921C9.15363 15.1587 8.80398 15.4998 8.55799 15.9129L10.2764 16.9362ZM10.5605 16.6591C10.6803 16.5909 10.8174 16.5537 10.9583 16.5524L10.9396 14.5525C10.4597 14.557 9.98821 14.6835 9.57098 14.921L10.5605 16.6591ZM10.9523 16.5524L18.226 16.5283L18.2194 14.5283L10.9456 14.5524L10.9523 16.5524ZM18.2339 16.5283C18.5803 16.5244 18.9188 16.4163 19.2038 16.2162L18.0547 14.5794C18.1023 14.5459 18.157 14.529 18.2115 14.5284L18.2339 16.5283ZM19.2038 16.2162C19.4891 16.016 19.7078 15.7324 19.8271 15.4016L17.9457 14.7231C17.9676 14.6624 18.0068 14.6129 18.0547 14.5794L19.2038 16.2162ZM19.8271 15.4016C19.9465 15.0707 19.9595 14.7109 19.8641 14.372L17.9389 14.9139C17.9212 14.851 17.9237 14.7841 17.9457 14.7231L19.8271 15.4016ZM19.8641 14.372C19.7688 14.0332 19.5706 13.7345 19.2998 13.5145L18.0385 15.0666C17.9925 15.0292 17.9566 14.9765 17.9389 14.9139L19.8641 14.372ZM19.2922 13.5083L2.84834 0.410967L1.6023 1.97538L18.0461 15.0727L19.2922 13.5083ZM2.85879 0.419404C2.55654 0.171967 2.17872 0.037864 1.79074 0.036446L1.78343 2.03643C1.7159 2.03619 1.64804 2.01295 1.59185 1.96694L2.85879 0.419404Z" fill="#282828" mask="url(#path-1-inside-1_102_23)"/>
</svg>
